<svg width="251" height="32" viewBox="0 0 251 32" fill="none" xmlns="http://www.w3.org/2000/svg">
<path d="M66.799 23.5769H54.4075L52.0436 29.2596H45.7144L57.6102 2.74026H63.7107L75.6447 29.2596H69.163L66.799 23.5769ZM64.8545 18.9171L60.6223 8.76394L56.3901 18.9171H64.8545Z" fill="white"/>
<path d="M89.7129 29.7142C85.9002 29.7142 82.9262 28.6661 80.791 26.5698C78.6813 24.4735 77.6264 21.4806 77.6264 17.5911V2.74026H83.8031V17.3638C83.8031 22.112 85.7858 24.4861 89.7511 24.4861C91.6829 24.4861 93.1572 23.9178 94.1739 22.7813C95.1906 21.6195 95.699 19.8137 95.699 17.3638V2.74026H101.799V17.5911C101.799 21.4806 100.732 24.4735 98.5967 26.5698C96.487 28.6661 93.5257 29.7142 89.7129 29.7142Z" fill="white"/>
<path d="M112.985 7.74105H104.444V2.74026H127.702V7.74105H119.162V29.2596H112.985V7.74105Z" fill="white"/>
<path d="M143.579 29.7142C140.808 29.7142 138.304 29.1207 136.067 27.9336C133.856 26.7466 132.115 25.1175 130.844 23.0465C129.598 20.9502 128.976 18.6014 128.976 15.9999C128.976 13.3985 129.598 11.0623 130.844 8.99125C132.115 6.89496 133.856 5.25328 136.067 4.06623C138.304 2.87917 140.808 2.28564 143.579 2.28564C146.349 2.28564 148.84 2.87917 151.052 4.06623C153.263 5.25328 155.004 6.89496 156.275 8.99125C157.546 11.0623 158.182 13.3985 158.182 15.9999C158.182 18.6014 157.546 20.9502 156.275 23.0465C155.004 25.1175 153.263 26.7466 151.052 27.9336C148.84 29.1207 146.349 29.7142 143.579 29.7142ZM143.579 24.4861C145.155 24.4861 146.578 24.1325 147.849 23.4253C149.12 22.6929 150.111 21.6826 150.823 20.3946C151.56 19.1065 151.929 17.6416 151.929 15.9999C151.929 14.3583 151.56 12.8934 150.823 11.6053C150.111 10.3172 149.12 9.31958 147.849 8.6124C146.578 7.87996 145.155 7.51374 143.579 7.51374C142.003 7.51374 140.579 7.87996 139.308 8.6124C138.037 9.31958 137.033 10.3172 136.296 11.6053C135.584 12.8934 135.229 14.3583 135.229 15.9999C135.229 17.6416 135.584 19.1065 136.296 20.3946C137.033 21.6826 138.037 22.6929 139.308 23.4253C140.579 24.1325 142.003 24.4861 143.579 24.4861Z" fill="white"/>
<path d="M162.824 2.74026H174.948C177.846 2.74026 180.401 3.2959 182.612 4.40719C184.849 5.49322 186.577 7.03387 187.797 9.02913C189.043 11.0244 189.666 13.348 189.666 15.9999C189.666 18.6519 189.043 20.9755 187.797 22.9707C186.577 24.966 184.849 26.5193 182.612 27.6306C180.401 28.7166 177.846 29.2596 174.948 29.2596H162.824V2.74026ZM174.643 24.2209C177.312 24.2209 179.435 23.4885 181.011 22.0236C182.612 20.5335 183.413 18.5256 183.413 15.9999C183.413 13.4743 182.612 11.479 181.011 10.0141C179.435 8.524 177.312 7.77894 174.643 7.77894H169V24.2209H174.643Z" fill="white"/>
<path d="M207.249 29.7142C204.478 29.7142 201.975 29.1207 199.738 27.9336C197.526 26.7466 195.785 25.1175 194.514 23.0465C193.269 20.9502 192.646 18.6014 192.646 15.9999C192.646 13.3985 193.269 11.0623 194.514 8.99125C195.785 6.89496 197.526 5.25328 199.738 4.06623C201.975 2.87917 204.478 2.28564 207.249 2.28564C210.02 2.28564 212.511 2.87917 214.722 4.06623C216.933 5.25328 218.675 6.89496 219.946 8.99125C221.217 11.0623 221.852 13.3985 221.852 15.9999C221.852 18.6014 221.217 20.9502 219.946 23.0465C218.675 25.1175 216.933 26.7466 214.722 27.9336C212.511 29.1207 210.02 29.7142 207.249 29.7142ZM207.249 24.4861C208.825 24.4861 210.248 24.1325 211.519 23.4253C212.79 22.6929 213.782 21.6826 214.493 20.3946C215.23 19.1065 215.599 17.6416 215.599 15.9999C215.599 14.3583 215.23 12.8934 214.493 11.6053C213.782 10.3172 212.79 9.31958 211.519 8.6124C210.248 7.87996 208.825 7.51374 207.249 7.51374C205.673 7.51374 204.25 7.87996 202.979 8.6124C201.708 9.31958 200.704 10.3172 199.967 11.6053C199.255 12.8934 198.899 14.3583 198.899 15.9999C198.899 17.6416 199.255 19.1065 199.967 20.3946C200.704 21.6826 201.708 22.6929 202.979 23.4253C204.25 24.1325 205.673 24.4861 207.249 24.4861Z" fill="white"/>
<path d="M239.267 29.7142C236.547 29.7142 234.081 29.1333 231.87 27.9715C229.684 26.7845 227.956 25.1554 226.685 23.0844C225.439 20.9881 224.816 18.6266 224.816 15.9999C224.816 13.3733 225.439 11.0244 226.685 8.95336C227.956 6.85707 229.684 5.22803 231.87 4.06623C234.081 2.87917 236.56 2.28564 239.305 2.28564C241.618 2.28564 243.702 2.68975 245.558 3.49796C247.439 4.30617 249.015 5.46797 250.286 6.98336L246.32 10.6203C244.516 8.54926 242.279 7.51374 239.61 7.51374C237.958 7.51374 236.484 7.87996 235.187 8.6124C233.891 9.31958 232.874 10.3172 232.137 11.6053C231.425 12.8934 231.069 14.3583 231.069 15.9999C231.069 17.6416 231.425 19.1065 232.137 20.3946C232.874 21.6826 233.891 22.6929 235.187 23.4253C236.484 24.1325 237.958 24.4861 239.61 24.4861C242.279 24.4861 244.516 23.438 246.32 21.3417L250.286 24.9786C249.015 26.5193 247.439 27.6937 245.558 28.5019C243.677 29.3101 241.58 29.7142 239.267 29.7142Z" fill="white"/>
<path fill-rule="evenodd" clip-rule="evenodd" d="M6.30944 21.4861C8.8464 21.4861 10.903 23.5427 10.903 26.0797L10.903 32L20.1107 32L20.1107 21.4861L20.1108 16.6743C20.1108 14.1373 18.0542 12.0807 15.5172 12.0807L-2.30986e-05 12.0807L-2.38998e-05 21.4861L6.30944 21.4861Z" fill="#F85A00"/>
<path fill-rule="evenodd" clip-rule="evenodd" d="M25.6906 10.5139C23.1536 10.5139 21.097 8.45726 21.097 5.9203V0L11.8893 0L11.8893 10.5139L11.8892 15.3257C11.8892 17.8627 13.9458 19.9193 16.4828 19.9193L32 19.9193V10.5139L25.6906 10.5139Z" fill="white"/>
</svg>
